<svg width="30" height="30" viewBox="0 0 30 30" fill="none" xmlns="http://www.w3.org/2000/svg">
<path d="M6.76501 5.65457V22.0838C6.75576 23.1167 6.39528 24.1036 5.76195 24.8301C5.12862 25.5567 4.27355 25.9642 3.38251 25.9642C2.49145 25.9642 1.63639 25.5567 1.00306 24.8301C0.369718 24.1036 0.00926658 23.1167 0 22.0838V5.65457C0.000582016 4.61477 0.357429 3.61781 0.992058 2.88295C1.62669 2.1481 2.48713 1.73553 3.38415 1.73598C3.94512 1.73425 4.49741 1.89613 4.99026 2.20672C4.99794 2.21054 5.00123 2.2152 5.00489 2.2152C5.00679 2.21762 5.00939 2.21913 5.01221 2.21944C5.29271 2.39684 5.54913 2.6212 5.77318 2.88527C6.08767 3.24843 6.33715 3.68002 6.50738 4.15525C6.67758 4.63049 6.76512 5.14002 6.76501 5.65457Z" fill="white"/>
<path d="M14.4951 9.20424V25.6293C14.4951 26.1442 14.4076 26.654 14.2376 27.1297C14.0677 27.6054 13.8185 28.0376 13.5045 28.4017C13.1904 28.7657 12.8175 29.0545 12.4071 29.2516C11.9968 29.4486 11.557 29.55 11.1128 29.55C10.6686 29.55 10.2288 29.4486 9.81844 29.2516C9.40806 29.0545 9.03522 28.7657 8.72113 28.4017C8.40704 28.0376 8.1579 27.6054 7.98792 27.1297C7.81794 26.654 7.73047 26.1442 7.73047 25.6293V9.20424C7.73036 8.68906 7.81783 8.17888 7.98788 7.70292C8.1579 7.22692 8.40719 6.79443 8.72146 6.43014C9.03573 6.06584 9.40883 5.77687 9.81942 5.57979C10.2301 5.38268 10.6702 5.28128 11.1146 5.2814C11.2354 5.2814 11.3524 5.28988 11.4658 5.30218H11.4735C12.3034 5.40676 13.0707 5.86283 13.6283 6.58285C14.1859 7.30287 14.4946 8.23621 14.4951 9.20382V9.20424Z" fill="#EE4622"/>
<path d="M22.2695 4.53497V20.9643C22.2695 22.0041 21.9132 23.0013 21.2789 23.7366C20.6446 24.4719 19.7842 24.885 18.8872 24.885C17.9902 24.885 17.1299 24.4719 16.4955 23.7366C15.8612 23.0013 15.5049 22.0041 15.5049 20.9643V4.53497C15.5049 4.02002 15.5924 3.51011 15.7626 3.03441C15.9327 2.5587 16.182 2.12653 16.4963 1.7626C16.8106 1.39867 17.1837 1.11012 17.5942 0.913439C18.0048 0.71676 18.4448 0.615814 18.889 0.616371C19.0286 0.614704 19.1681 0.62605 19.3061 0.650298H19.3134C20.0573 0.754628 20.7493 1.14599 21.2781 1.76142C21.5926 2.12541 21.842 2.55776 22.0122 3.0337C22.1823 3.50963 22.2698 4.01979 22.2695 4.53497Z" fill="white"/>
<path d="M30 9.0172V25.4427C30 25.9576 29.9125 26.4674 29.7425 26.9431C29.5725 27.4188 29.3234 27.851 29.0093 28.215C28.6953 28.5791 28.3224 28.8679 27.912 29.065C27.5017 29.262 27.0618 29.3634 26.6177 29.3634C26.1735 29.3634 25.7337 29.262 25.3233 29.065C24.9129 28.8679 24.5401 28.5791 24.226 28.215C23.9119 27.851 23.6628 27.4188 23.4928 26.9431C23.3228 26.4674 23.2354 25.9576 23.2354 25.4427V9.0172C23.2353 8.50202 23.3228 7.99192 23.4928 7.51592C23.6629 7.03996 23.9122 6.60748 24.2264 6.24322C24.5407 5.87893 24.9138 5.59 25.3244 5.39288C25.735 5.19576 26.1751 5.09432 26.6195 5.09436C27.0671 5.09224 27.5103 5.19631 27.9219 5.40013H27.9256C27.9275 5.40255 27.9301 5.40408 27.9329 5.40437C28.3357 5.59945 28.7012 5.88482 29.0085 6.24407C29.3239 6.60718 29.574 7.03933 29.7442 7.51537C29.9144 7.99141 30.0014 8.50189 30 9.0172Z" fill="#EE4622"/>
<g style="mix-blend-mode:multiply" opacity="0.3">
<g style="mix-blend-mode:multiply" opacity="0.3">
<path d="M6.76501 10.3831V22.0838C6.75576 23.1166 6.39528 24.1035 5.76195 24.8301C5.12862 25.5567 4.27355 25.9642 3.38251 25.9642C2.49145 25.9642 1.63639 25.5567 1.00306 24.8301C0.369718 24.1035 0.00926658 23.1166 0 22.0838V21.4095C0 21.4095 0.0073176 21.5066 0.0219518 21.6847C0.0292689 21.8671 0.05122 22.1347 0.0881713 22.4608C0.150501 22.8495 0.258712 23.2264 0.409757 23.5809C0.676816 24.2105 1.09265 24.7393 1.60885 25.1057C2.12505 25.472 2.7204 25.6609 3.32562 25.6504C3.60009 25.6471 3.87305 25.6029 4.13781 25.519C4.69713 25.3364 5.20143 24.9766 5.59391 24.4799C5.99584 23.9746 6.2605 23.3433 6.35489 22.6648C6.36221 22.58 6.3805 22.5121 6.38416 22.4146L6.39916 22.1262C6.40611 21.9778 6.40245 21.753 6.40611 21.5707C6.40611 21.189 6.40977 20.8031 6.41343 20.4256C6.41343 19.6665 6.43538 18.9201 6.44306 18.1949C6.46831 16.7488 6.50855 15.3997 6.55611 14.2424C6.64428 11.9268 6.76501 10.3831 6.76501 10.3831Z" fill="black"/>
</g>
</g>
<g style="mix-blend-mode:overlay" opacity="0.6">
<g style="mix-blend-mode:overlay" opacity="0.6">
<path d="M5.00525 2.21524C4.87805 2.16717 4.74857 2.12753 4.61745 2.09649C4.27943 2.00568 3.93235 1.96858 3.58574 1.98623C3.47674 1.99095 3.3681 2.0037 3.26049 2.0244C3.14715 2.04055 3.03475 2.06462 2.92391 2.09649C2.16918 2.29437 1.49608 2.78699 1.01744 3.49175C0.850586 3.72875 0.710438 3.98939 0.600367 4.26742C0.495283 4.53659 0.415556 4.81812 0.362562 5.10711C0.335648 5.25415 0.315981 5.40279 0.303658 5.55241L0.292683 5.66691C0.292683 5.67116 0.289025 5.73477 0.285366 5.76446C0.281707 5.84079 0.27805 5.91713 0.271098 5.98922C0.256098 6.28609 0.230488 6.56599 0.208537 6.82468C0.163961 7.40229 0.0943604 7.97698 0 8.54649V5.65419C0.000675506 4.97395 0.153928 4.30564 0.444714 3.71481C0.735499 3.12398 1.15382 2.63095 1.65863 2.28411C2.16343 1.93728 2.73736 1.74856 3.32408 1.73649C3.9108 1.72441 4.49013 1.88939 5.00525 2.21524Z" fill="white"/>
</g>
</g>
<g style="mix-blend-mode:multiply" opacity="0.3">
<g style="mix-blend-mode:multiply" opacity="0.3">
<path d="M14.4951 13.9154V25.6293C14.4951 26.1441 14.4076 26.6539 14.2376 27.1296C14.0677 27.6053 13.8185 28.0375 13.5045 28.4016C13.1904 28.7657 12.8175 29.0545 12.4071 29.2515C11.9968 29.4486 11.557 29.55 11.1128 29.55C10.6686 29.55 10.2288 29.4486 9.81844 29.2515C9.40806 29.0545 9.03522 28.7657 8.72113 28.4016C8.40704 28.0375 8.1579 27.6053 7.98792 27.1296C7.81794 26.6539 7.73047 26.1441 7.73047 25.6293V25.1543C7.73047 25.1543 7.73779 25.2518 7.75242 25.4295C7.76537 25.6864 7.79596 25.9416 7.84388 26.1929C8.0091 27.0661 8.42907 27.8467 9.03291 28.4028C9.42419 28.76 9.88107 29.0081 10.3683 29.128C10.4928 29.1572 10.6186 29.1784 10.7451 29.1916C10.8839 29.2027 11.0231 29.2055 11.1622 29.2001C11.4378 29.1826 11.7106 29.1269 11.9747 29.0343C12.522 28.8262 13.01 28.4495 13.3866 27.9444C13.7728 27.4307 14.0197 26.7964 14.0963 26.1208C14.1179 25.9465 14.1301 25.7709 14.1329 25.5949L14.1366 25.022C14.1366 24.6403 14.1402 24.2586 14.1443 23.8816C14.1443 23.1309 14.1658 22.3888 14.1735 21.6678C14.1988 20.234 14.239 18.8943 14.2866 17.745C14.3744 15.4468 14.4951 13.9154 14.4951 13.9154Z" fill="black"/>
</g>
</g>
<g style="mix-blend-mode:overlay" opacity="0.6">
<g style="mix-blend-mode:overlay" opacity="0.6">
<path d="M11.4658 5.30218C11.4329 5.31109 11.3049 5.33229 11.1036 5.36622C10.9902 5.40015 10.8516 5.42559 10.7012 5.47648C10.5334 5.53327 10.3685 5.60108 10.2073 5.67962C10.0224 5.77441 9.84383 5.88514 9.67315 6.01084C9.48884 6.15236 9.31396 6.3097 9.14998 6.48158C8.98257 6.66975 8.83067 6.8756 8.69632 7.09651C8.55807 7.3206 8.44034 7.56081 8.3451 7.81323C8.25232 8.06598 8.18135 8.32879 8.13327 8.59779C8.10873 8.73227 8.09029 8.86819 8.07803 9.00492L8.05974 9.20806L8.05242 9.42901C8.02681 10.01 7.98657 10.5524 7.93901 11.0194C7.89444 11.5423 7.82482 12.0619 7.73047 12.5758V9.20424C7.73036 8.68906 7.81783 8.17888 7.98788 7.70292C8.1579 7.22692 8.40719 6.79443 8.72146 6.43014C9.03573 6.06584 9.40883 5.77687 9.81942 5.57979C10.2301 5.38268 10.6702 5.28128 11.1146 5.2814C11.2354 5.2814 11.3524 5.28988 11.4658 5.30218Z" fill="white"/>
</g>
</g>
<g style="mix-blend-mode:multiply" opacity="0.3">
<g style="mix-blend-mode:multiply" opacity="0.3">
<path d="M22.2695 6.21442V20.9643C22.2695 22.0041 21.9132 23.0014 21.2789 23.7367C20.6446 24.4719 19.7842 24.885 18.8872 24.885C17.9902 24.885 17.1299 24.4719 16.4955 23.7367C15.8612 23.0014 15.5049 22.0041 15.5049 20.9643V20.6335C15.5049 20.6335 15.5122 20.7395 15.5268 20.9389C15.5467 21.2242 15.5895 21.5067 15.6549 21.7828C15.7601 22.2034 15.9259 22.6004 16.1451 22.9571C16.4203 23.4126 16.7788 23.792 17.1951 24.0682C17.6784 24.3935 18.2278 24.5634 18.7866 24.5606C19.0828 24.5644 19.3778 24.5158 19.6614 24.4164C19.9597 24.3204 20.2436 24.1716 20.5028 23.9753C21.0422 23.5647 21.4588 22.9707 21.6955 22.2747L21.7797 22.0118L21.8382 21.7357C21.8601 21.6428 21.8638 21.5537 21.8784 21.4647C21.8941 21.3682 21.9015 21.2702 21.9004 21.1721C21.9187 20.7904 21.9004 20.3282 21.904 19.9126C21.9077 19.0559 21.9114 18.1992 21.9187 17.3552C21.9187 16.5113 21.9406 15.6844 21.9479 14.8828C21.9736 13.2755 22.0138 11.7784 22.0614 10.4935C22.1488 7.92346 22.2695 6.21442 22.2695 6.21442Z" fill="black"/>
</g>
</g>
<g style="mix-blend-mode:overlay" opacity="0.6">
<g style="mix-blend-mode:overlay" opacity="0.6">
<path d="M19.3061 0.650298C19.2585 0.65878 19.1378 0.679985 18.9585 0.70543C18.8488 0.713912 18.7061 0.76862 18.5524 0.798306C18.3839 0.852241 18.2178 0.916078 18.0549 0.989571C17.8679 1.07992 17.6869 1.18624 17.5134 1.30764C17.3242 1.44176 17.1456 1.59503 16.9796 1.76566C16.8915 1.85048 16.8146 1.95226 16.7345 2.04556C16.6613 2.15582 16.5768 2.25294 16.511 2.36787C16.368 2.58904 16.2465 2.82784 16.1488 3.07992C16.0478 3.32972 15.9705 3.59151 15.9183 3.86067C15.9037 3.99638 15.8671 4.09816 15.8561 4.25931L15.8378 4.47941L15.8342 4.53497V4.53921L15.8305 4.54303V4.57314L15.8268 4.6834C15.8012 5.26865 15.761 5.81149 15.7134 6.27799C15.669 6.80229 15.5993 7.32333 15.5049 7.83864V4.53497C15.5049 4.02001 15.5924 3.51011 15.7626 3.03441C15.9327 2.5587 16.182 2.12653 16.4963 1.7626C16.8106 1.39867 17.1837 1.11012 17.5942 0.913439C18.0048 0.71676 18.4448 0.615814 18.889 0.616371C19.0286 0.614704 19.1681 0.62605 19.3061 0.650298Z" fill="white"/>
</g>
</g>
<g style="mix-blend-mode:overlay" opacity="0.6">
<g style="mix-blend-mode:overlay" opacity="0.6">
<path d="M27.9219 5.40013C27.889 5.39123 27.7573 5.36154 27.5488 5.33228C27.428 5.31531 27.2817 5.30641 27.1171 5.30217C26.9336 5.30136 26.7503 5.31425 26.5683 5.34076C26.3582 5.37702 26.1504 5.42931 25.9463 5.49725C25.7264 5.57948 25.5133 5.68465 25.3097 5.8115C24.8747 6.08746 24.4966 6.46943 24.2012 6.9311C24.0501 7.16219 23.9225 7.41261 23.8207 7.6775C23.7227 7.93361 23.6479 8.20079 23.5975 8.47479C23.5702 8.61296 23.5518 8.75329 23.5427 8.89464L23.5317 9.00066L23.528 9.02187L23.5244 9.03841L23.5207 9.09396C23.5171 9.16606 23.5134 9.23391 23.5097 9.30601C23.4915 9.58591 23.4695 9.85309 23.4439 10.0948C23.3995 10.643 23.3299 11.188 23.2354 11.7276V9.0172C23.2353 8.50202 23.3228 7.99192 23.4928 7.51592C23.6629 7.03996 23.9122 6.60748 24.2264 6.24322C24.5407 5.87893 24.9138 5.59 25.3244 5.39288C25.735 5.19576 26.1751 5.09432 26.6195 5.09436C27.0671 5.09224 27.5103 5.19631 27.9219 5.40013Z" fill="white"/>
</g>
</g>
<g style="mix-blend-mode:multiply" opacity="0.3">
<g style="mix-blend-mode:multiply" opacity="0.3">
<path d="M30 14.9083V25.4427C30 25.9576 29.9125 26.4674 29.7425 26.9431C29.5725 27.4188 29.3234 27.851 29.0093 28.2151C28.6953 28.5791 28.3224 28.8679 27.912 29.065C27.5017 29.262 27.0618 29.3634 26.6177 29.3634C26.1735 29.3634 25.7337 29.262 25.3233 29.065C24.9129 28.8679 24.5401 28.5791 24.226 28.2151C23.9119 27.851 23.6628 27.4188 23.4928 26.9431C23.3228 26.4674 23.2354 25.9576 23.2354 25.4427C23.2354 25.4427 23.2463 25.5318 23.2683 25.7014C23.2775 25.802 23.2946 25.9013 23.3195 25.9983C23.3421 26.1325 23.3739 26.2643 23.4146 26.3927C23.6002 27.0433 23.9324 27.6246 24.3769 28.0765C24.8214 28.5283 25.362 28.8343 25.9427 28.9627C26.0634 28.9881 26.1768 28.9966 26.2976 29.0136L26.5024 29.0178H26.6378L26.6854 29.0093C26.9434 28.9938 27.1988 28.9425 27.4463 28.8566C27.958 28.6729 28.4204 28.3398 28.789 27.8893C28.9769 27.6579 29.1391 27.4001 29.272 27.1221C29.398 26.8403 29.4927 26.541 29.5537 26.2315C29.5863 26.081 29.6095 25.9279 29.6232 25.7735L29.6378 25.5106V25.4427L29.6415 25.3956V25.2646C29.6415 24.9083 29.6451 24.5517 29.6488 24.2001C29.6488 23.5004 29.6707 22.8049 29.678 22.139C29.7037 20.7989 29.7439 19.5478 29.7915 18.4791C29.8793 16.3328 30 14.9083 30 14.9083Z" fill="black"/>
</g>
</g>
</svg>
